<?xml version="1.0" encoding="iso-8859-1"?>
<!-- Generator: Adobe Illustrator 19.0.0, SVG Export Plug-In . SVG Version: 6.00 Build 0)  -->
<svg version="1.1" id="Capa_1" xmlns="http://www.w3.org/2000/svg" xmlns:xlink="http://www.w3.org/1999/xlink" x="0px" y="0px"
	 viewBox="0 0 468.293 468.293" style="enable-background:new 0 0 468.293 468.293;" xml:space="preserve">
<path style="fill:#D5D6DB;" d="M450.058,91.551H18.232C8.163,91.551,0,99.715,0,109.784v152.097c0,10.07,8.163,18.233,18.232,18.233
	h431.826c10.071,0,18.234-8.163,18.234-18.233V109.784C468.293,99.715,460.13,91.551,450.058,91.551z"/>
<g>
	<path style="fill:#64798A;" d="M387.249,228.642H29.441c-1.81,0-3.279,1.659-3.279,3.706v32.985c0,2.047,1.468,3.706,3.279,3.706
		h357.808c1.81,0,3.278-1.659,3.278-3.706v-32.985C390.527,230.301,389.06,228.642,387.249,228.642z"/>
	<path style="fill:#64798A;" d="M340.285,363.168c-19.313,0-35.631-25.643-35.631-55.992c0-3.752-3.036-6.787-6.787-6.787
		c-3.752,0-6.787,3.035-6.787,6.787c0,39.011,21.613,69.565,49.205,69.565c3.751,0,6.787-3.035,6.787-6.787
		C347.072,366.204,344.036,363.168,340.285,363.168z"/>
	<path style="fill:#64798A;" d="M408.465,363.168c-19.313,0-35.631-25.643-35.631-55.992c0-3.752-3.035-6.787-6.787-6.787
		c-3.751,0-6.787,3.035-6.787,6.787c0,39.011,21.614,69.565,49.205,69.565c3.752,0,6.787-3.035,6.787-6.787
		C415.252,366.204,412.217,363.168,408.465,363.168z"/>
	<path style="fill:#64798A;" d="M170.432,300.389c-3.752,0-6.787,3.035-6.787,6.787c0,30.349-16.318,55.992-35.631,55.992
		c-3.752,0-6.787,3.035-6.787,6.786c0,3.752,3.035,6.787,6.787,6.787c27.591,0,49.205-30.554,49.205-69.565
		C177.219,303.425,174.183,300.389,170.432,300.389z"/>
	<path style="fill:#64798A;" d="M102.244,300.389c-3.75,0-6.786,3.035-6.786,6.787c0,30.349-16.318,55.992-35.631,55.992
		c-3.751,0-6.787,3.035-6.787,6.786c0,3.752,3.036,6.787,6.787,6.787c27.592,0,49.204-30.554,49.204-69.565
		C109.031,303.425,105.996,300.389,102.244,300.389z"/>
</g>
<g>
	<rect x="31.151" y="235.02" style="fill:#2F4859;" width="354.385" height="11.177"/>
	<rect x="31.151" y="252.391" style="fill:#2F4859;" width="354.385" height="11.177"/>
</g>
<rect x="410.287" y="201.066" style="fill:#27A2DB;" width="40.585" height="39.543"/>
<rect x="410.287" y="235.395" style="fill:#2D93BA;" width="40.585" height="5.201"/>
<rect x="410.287" y="248.819" style="fill:#E56353;" width="17.171" height="10.758"/>
<rect x="433.714" y="248.819" style="fill:#F6C358;" width="17.171" height="10.758"/>
<g>
</g>
<g>
</g>
<g>
</g>
<g>
</g>
<g>
</g>
<g>
</g>
<g>
</g>
<g>
</g>
<g>
</g>
<g>
</g>
<g>
</g>
<g>
</g>
<g>
</g>
<g>
</g>
<g>
</g>
</svg>
