<svg id="Layer_1" enable-background="new 0 0 512 512" height="512" viewBox="0 0 512 512" width="512" xmlns="http://www.w3.org/2000/svg"><g><path d="m321 0h-130c-4.143 0-7.5 3.358-7.5 7.5v30c0 4.142 3.357 7.5 7.5 7.5h130c4.143 0 7.5-3.358 7.5-7.5v-30c0-4.142-3.358-7.5-7.5-7.5z" fill="#69676d"/><g><path d="m280.439 371.5h-48.628v97.055c0 4.142 3.358 7.5 7.5 7.5h33.628c4.142 0 7.5-3.358 7.5-7.5z" fill="#69676d"/><path d="m338.169 483.66v20.84c0 4.14-3.36 7.5-7.5 7.5h-149.089c-4.14 0-7.5-3.36-7.5-7.5v-20.84c0-12.46 10.14-22.6 22.61-22.6h118.87c12.47 0 22.609 10.14 22.609 22.6z" fill="#504e54"/><path d="m338.169 483.66v20.84c0 4.14-3.36 7.5-7.5 7.5h-29c4.14 0 7.5-3.36 7.5-7.5v-20.84c0-12.48-10.12-22.6-22.61-22.6h29c12.471 0 22.61 10.14 22.61 22.6z" fill="#413a4c"/></g><path d="m360.385 370.92c-4.84 5.14-11.66 8.08-18.71 8.08h-171.35c-7.05 0-13.87-2.94-18.71-8.08-4.84-5.13-7.37-12.12-6.95-19.16l18.85-314.71c.24-3.96 3.52-7.05 7.49-7.05h170c3.96 0 7.24 3.09 7.48 7.05l18.85 314.71c.419 7.04-2.11 14.03-6.95 19.16z" fill="#d2d1d3"/><path d="m360.385 370.92c-4.84 5.14-11.66 8.08-18.71 8.08h-25c7.05 0 13.87-2.94 18.71-8.08 4.84-5.13 7.37-12.12 6.95-19.16l-18.85-314.71c-.24-3.96-3.52-7.05-7.48-7.05h25c3.96 0 7.24 3.09 7.48 7.05l18.85 314.71c.419 7.04-2.11 14.03-6.95 19.16z" fill="#b1aeb5"/><path d="m320.824 271.48c0 34.95-27.64 63.43-62.24 64.78-.86.03-1.72.05-2.58.05-35.81 0-64.83-29.02-64.83-64.83 0-35.8 29.02-64.82 64.83-64.82.87 0 1.74.02 2.6.05 34.591 1.37 62.22 29.84 62.22 64.77z" fill="#504e54"/><path d="m320.824 271.48c0 34.95-27.64 63.43-62.24 64.78 23.68-11.93 39.92-36.45 39.92-64.78 0-28.31-16.23-52.84-39.9-64.77 34.591 1.37 62.22 29.84 62.22 64.77z" fill="#413a4c"/><path d="m303.245 121.41c0 25.84-20.75 46.84-46.49 47.24-.25.01-.5.01-.75.01-26.1 0-47.25-21.16-47.25-47.25s21.15-47.25 47.25-47.25c.25 0 .5 0 .75.01 25.74.4 46.49 21.4 46.49 47.24z" fill="#504e54"/><path d="m303.245 121.41c0 25.84-20.75 46.84-46.49 47.24 15.95-9.69 26.6-27.22 26.6-47.24s-10.65-37.55-26.6-47.24c25.74.4 46.49 21.4 46.49 47.24z" fill="#413a4c"/><g><path d="m256.005 198.98c-5.13 0-10.14.54-14.97 1.56-32.82 6.91-57.53 36.1-57.53 70.94 0 34.85 24.71 64.03 57.53 70.94 4.83 1.02 9.84 1.56 14.97 1.56 39.97 0 72.5-32.52 72.5-72.5-.001-39.97-32.53-72.5-72.5-72.5zm17.51 127.27c-5.52 1.77-11.41 2.73-17.51 2.73-31.71 0-57.5-25.79-57.5-57.5 0-31.7 25.79-57.5 57.5-57.5 6.1 0 11.97.95 17.49 2.72 23.18 7.42 40.01 29.18 40.01 54.78-.001 25.61-16.82 47.35-39.99 54.77z" fill="#69676d"/><path d="m256.005 66.05c-4.9 0-9.64.64-14.17 1.84-23.69 6.27-41.19 27.9-41.19 53.52 0 25.63 17.5 47.25 41.19 53.52 4.53 1.2 9.27 1.84 14.17 1.84 30.52 0 55.35-24.83 55.35-55.36-.001-30.52-24.831-55.36-55.35-55.36zm11.549 94.03c-3.66 1.1-7.54 1.69-11.55 1.69-22.26 0-40.36-18.11-40.36-40.36s18.1-40.36 40.36-40.36c4.01 0 7.89.59 11.55 1.69 16.64 4.98 28.8 20.43 28.8 38.67s-12.159 33.69-28.8 38.67z" fill="#69676d"/><g><circle cx="256.125" cy="121.41" fill="#69676d" r="21.399"/></g><g><circle cx="256.125" cy="271.485" fill="#69676d" r="21.399"/></g></g><path d="m328.504 271.48c0 39.98-32.53 72.5-72.5 72.5-5.13 0-10.14-.54-14.97-1.56 12.25-2.58 23.37-8.26 32.48-16.17 23.17-7.42 39.99-29.16 39.99-54.77 0-25.6-16.83-47.36-40.01-54.78-9.11-7.9-20.21-13.58-32.46-16.16 4.83-1.02 9.84-1.56 14.97-1.56 39.971 0 72.5 32.53 72.5 72.5z" fill="#504e54"/><g><g><path d="m99.566 212.359c-1.966-1.408-4.49-1.782-6.782-1.002l-58.764 19.992c-3.04 1.034-5.084 3.889-5.084 7.1v68.876c0 3.826-3.126 6.938-6.969 6.938-3.842 0-6.968-3.113-6.968-6.938 0-4.142-3.357-7.5-7.5-7.5s-7.5 3.358-7.5 7.5c0 12.097 9.854 21.938 21.968 21.938s21.969-9.842 21.969-21.938v-63.505l43.764-14.889v58.402c0 3.826-3.126 6.938-6.969 6.938-3.842 0-6.968-3.113-6.968-6.938 0-4.142-3.357-7.5-7.5-7.5s-7.5 3.358-7.5 7.5c0 12.097 9.854 21.938 21.968 21.938s21.969-9.842 21.969-21.938v-68.876c0-2.419-1.167-4.689-3.134-6.098z" fill="#f4dd45"/><path d="m508.866 258.926c-1.966-1.408-4.49-1.782-6.782-1.002l-58.764 19.992c-3.04 1.034-5.084 3.889-5.084 7.1v68.876c0 3.826-3.126 6.938-6.968 6.938-3.843 0-6.969-3.113-6.969-6.938 0-4.142-3.357-7.5-7.5-7.5s-7.5 3.358-7.5 7.5c0 12.097 9.855 21.938 21.969 21.938s21.968-9.842 21.968-21.938v-63.505l43.764-14.89v58.403c0 3.826-3.126 6.938-6.968 6.938-3.843 0-6.969-3.112-6.969-6.938 0-4.142-3.357-7.5-7.5-7.5s-7.5 3.358-7.5 7.5c0 12.097 9.855 21.938 21.969 21.938s21.968-9.841 21.968-21.938v-68.876c0-2.42-1.167-4.69-3.134-6.098z" fill="#ff6536"/></g><g fill="#10e881"><path d="m101.642 360.677h-9.096v-9.061c0-4.142-3.357-7.5-7.5-7.5s-7.5 3.358-7.5 7.5v9.061h-9.097c-4.143 0-7.5 3.358-7.5 7.5s3.357 7.5 7.5 7.5h9.097v9.062c0 4.142 3.357 7.5 7.5 7.5s7.5-3.358 7.5-7.5v-9.062h9.096c4.143 0 7.5-3.358 7.5-7.5s-3.358-7.5-7.5-7.5z"/><path d="m54.955 420.269h-9.096v-9.062c0-4.142-3.357-7.5-7.5-7.5s-7.5 3.358-7.5 7.5v9.062h-9.096c-4.143 0-7.5 3.358-7.5 7.5s3.357 7.5 7.5 7.5h9.096v9.062c0 4.142 3.357 7.5 7.5 7.5s7.5-3.358 7.5-7.5v-9.062h9.096c4.143 0 7.5-3.358 7.5-7.5s-3.357-7.5-7.5-7.5z"/><path d="m504.5 401.098h-9.096v-9.061c0-4.142-3.357-7.5-7.5-7.5s-7.5 3.358-7.5 7.5v9.061h-9.096c-4.143 0-7.5 3.358-7.5 7.5s3.357 7.5 7.5 7.5h9.096v9.062c0 4.142 3.357 7.5 7.5 7.5s7.5-3.358 7.5-7.5v-9.062h9.096c4.143 0 7.5-3.358 7.5-7.5s-3.357-7.5-7.5-7.5z"/><path d="m443.302 227.519h-9.097v-9.062c0-4.142-3.357-7.5-7.5-7.5s-7.5 3.358-7.5 7.5v9.062h-9.096c-4.143 0-7.5 3.358-7.5 7.5s3.357 7.5 7.5 7.5h9.096v9.061c0 4.142 3.357 7.5 7.5 7.5s7.5-3.358 7.5-7.5v-9.061h9.097c4.143 0 7.5-3.358 7.5-7.5s-3.358-7.5-7.5-7.5z"/></g><g fill="#80fcff"><path d="m103.397 162.255c-13.081-9.697-20.584-24.584-20.584-40.845s7.503-31.147 20.584-40.845c3.328-2.466 4.026-7.164 1.56-10.491s-7.164-4.026-10.491-1.559c-16.69 12.371-26.653 32.145-26.653 52.895s9.963 40.524 26.652 52.895c1.342.996 2.908 1.476 4.46 1.476 2.295 0 4.56-1.049 6.031-3.034 2.467-3.329 1.769-8.026-1.559-10.492z"/><path d="m128.8 134.153c-5.287-2.063-8.703-7.065-8.703-12.743 0-5.509 3.278-10.455 8.353-12.602 3.814-1.614 5.6-6.014 3.985-9.829-1.613-3.816-6.016-5.6-9.829-3.985-10.636 4.499-17.509 14.868-17.509 26.416 0 11.903 7.163 22.39 18.25 26.717.896.35 1.817.515 2.725.515 3 0 5.832-1.813 6.988-4.775 1.507-3.859-.401-8.208-4.26-9.714z"/><path d="m418.512 68.516c-3.325-2.467-8.023-1.769-10.491 1.559-2.467 3.328-1.769 8.025 1.56 10.491 13.082 9.698 20.585 24.585 20.585 40.845s-7.503 31.147-20.585 40.845c-3.328 2.466-4.026 7.164-1.56 10.491 1.472 1.985 3.736 3.034 6.031 3.034 1.552 0 3.118-.48 4.46-1.476 16.689-12.371 26.653-32.145 26.653-52.895s-9.963-40.523-26.653-52.894z"/><path d="m390.372 94.994c-3.813-1.614-8.215.17-9.829 3.985s.171 8.215 3.985 9.829c5.074 2.146 8.353 7.093 8.353 12.602 0 5.678-3.416 10.68-8.703 12.743-3.858 1.506-5.767 5.855-4.26 9.713 1.156 2.963 3.988 4.775 6.988 4.775.906 0 1.829-.166 2.725-.515 11.087-4.327 18.25-14.813 18.25-26.717-.001-11.547-6.874-21.916-17.509-26.415z"/></g></g><path d="m311.354 121.41c0 30.53-24.83 55.36-55.35 55.36-4.9 0-9.64-.64-14.17-1.84 9.92-2.54 18.77-7.76 25.72-14.85 16.64-4.98 28.8-20.43 28.8-38.67s-12.16-33.69-28.8-38.67c-6.95-7.09-15.8-12.31-25.72-14.85 4.53-1.2 9.27-1.84 14.17-1.84 30.52 0 55.35 24.84 55.35 55.36z" fill="#504e54"/></g></svg>