<svg height="512" viewBox="0 0 58 58" width="512" xmlns="http://www.w3.org/2000/svg"><g id="Page-1" fill="none" fill-rule="evenodd"><g id="014---Coffee-Machine" fill-rule="nonzero"><path id="Shape" d="m19 12-3 2 1.724 3.447c.1692635.3387294.5153343.5527978.894.553h.764c.3786657-.0002022.7247365-.2142706.894-.553l1.724-3.447z" fill="#7f8c8d"/><path id="Shape" d="m29.063 14h-20.126c-.59381515.0000743-1.15695831-.2637273-1.537-.72l-4.4-5.28 16-2 16 2-4.4 5.28c-.3800417.4562727-.9431849.7200743-1.537.72z" fill="#95a5a5"/><path id="Shape" d="m9.5 24h-4.5c-.62903377.0020295-1.22095611.2979907-1.6.8l-3 4c-.66274168.8836556-.48365557 2.1372583.40000002 2.8s2.13725827.4836556 2.79999998-.4l2.4-3.2h3.5z" fill="#547580"/><path id="Shape" d="m29 31v-6h-10.03-9.97v6z" fill="#7f8c8d"/><path id="Shape" d="m40 0h-38c-1.1045695 0-2 .8954305-2 2v4c0 1.1045695.8954305 2 2 2h36c1.1045695 0 2 .8954305 2 2v38c0 1.1045695-.8954305 2-2 2h-36c-1.1045695 0-2 .8954305-2 2v4c0 1.1045695.8954305 2 2 2h54c1.1045695 0 2-.8954305 2-2v-54c0-1.1045695-.8954305-2-2-2z" fill="#e64c3c"/><path id="Shape" d="m32.93 39c-.055383 4.5698967-2.5446174 8.763094-6.53 11h-14.86c-3.99103053-2.2324985-6.48504571-6.4273253-6.54-11 .01349221-3.4568272 1.46224466-6.752739 4-9.1l14.69.05 5.31.02c2.4959908 2.3415176 3.9174613 5.6076444 3.93 9.03z" fill="#67b9cc"/><path id="Shape" d="m52 11v26c-.0000001 1.6568542-1.3431458 2.9999999-3 2.9999999s-2.9999999-1.3431457-3-2.9999999v-26c0-1.65685425 1.3431458-3 3-3s3 1.34314575 3 3z" fill="#2fa8cc"/><circle id="Oval" cx="49" cy="47" fill="#f0c419" r="3"/><g fill="#3f5c6c"><path id="Shape" d="m49 36c0 .5522847-.4477153 1-1 1h-2v-2h2c.5522847 0 1 .4477153 1 1z"/><path id="Shape" d="m49 32c0 .5522847-.4477153 1-1 1h-2v-2h2c.5522847 0 1 .4477153 1 1z"/><path id="Shape" d="m49 28c0 .5522847-.4477153 1-1 1h-2v-2h2c.5522847 0 1 .4477153 1 1z"/><path id="Shape" d="m49 24c0 .5522847-.4477153 1-1 1h-2v-2h2c.5522847 0 1 .4477153 1 1z"/><path id="Shape" d="m49 20c0 .5522847-.4477153 1-1 1h-2v-2h2c.5522847 0 1 .4477153 1 1z"/><path id="Shape" d="m49 16c0 .5522847-.4477153 1-1 1h-2v-2h2c.5522847 0 1 .4477153 1 1z"/><path id="Shape" d="m49 12c0 .5522847-.4477153 1-1 1h-2v-2h2c.5522847 0 1 .4477153 1 1z"/></g><path id="Shape" d="m32.89 40c-.3948489 4.1951278-2.8193456 7.93087-6.49 10h-14.86c-3.67232492-2.0690497-6.10000212-5.8039377-6.5-10z" fill="#805333"/><path id="Shape" d="m29 26h-20l-.845-3.379c-.03724258-.1493206-.00364772-.3074727.09107784-.4287605.09472555-.1212877.24002722-.192197.39392216-.1922395h20.72c.1538949.0000425.2991966.0709518.3939222.1922395.0947255.1212878.1283204.2794399.0910778.4287605z" fill="#95a5a5"/><path id="Shape" d="m32.93 39c0 .34-.01.67-.04 1h-16.37c1.3093792-4.0027042 3.8111903-7.5094268 7.17-10.05l5.31.02c2.4959908 2.3415176 3.9174613 5.6076444 3.93 9.03z" fill="#2fa8cc"/><path id="Shape" d="m32.89 40c-.3948489 4.1951278-2.8193456 7.93087-6.49 10h-11.44c-.0403581-3.3969372.4868947-6.7767631 1.56-10z" fill="#603e26"/></g></g></svg>