<svg height="512" viewBox="0 0 60 60" width="512" xmlns="http://www.w3.org/2000/svg"><g id="Page-1" fill="none" fill-rule="evenodd"><g id="014---Coffee-Machine" fill-rule="nonzero"><path id="Shape" d="m41 1h-38c-1.1045695 0-2 .8954305-2 2v4c0 1.1045695.8954305 2 2 2h36c1.1045695 0 2 .8954305 2 2v38c0 1.1045695-.8954305 2-2 2h-36c-1.1045695 0-2 .8954305-2 2v4c0 1.1045695.8954305 2 2 2h54c1.1045695 0 2-.8954305 2-2v-54c0-1.1045695-.8954305-2-2-2z" fill="#ffdc00"/><path id="Shape" d="m57 1h-3c1.1045695 0 2 .8954305 2 2v54c0 1.1045695-.8954305 2-2 2h3c1.1045695 0 2-.8954305 2-2v-54c0-1.1045695-.8954305-2-2-2z" fill="#fec108"/><path id="Shape" d="m30.063 15h-20.126c-.59381515.0000743-1.15695831-.2637273-1.537-.72l-4.4-5.28h32l-4.4 5.28c-.3800417.4562727-.9431849.7200743-1.537.72z" fill="#607d8b"/><path id="Shape" d="m33 9-4.4 5.28c-.3800417.4562727-.9431849.7200743-1.537.72h3c.5938151.0000743 1.1569583-.2637273 1.537-.72l4.4-5.28z" fill="#37474f"/><path id="Shape" d="m31 23-1 4h-20l-1-4z" fill="#02a9f4"/><path id="Shape" d="m28 23-1 4h3l1-4z" fill="#0377bc"/><path id="Shape" d="m30 27v3.97l-20 .03v-4z" fill="#3f51b5"/><path id="Shape" d="m27 27v3.97l-17 .025v.005l20-.03v-3.97z" fill="#283593"/><path id="Shape" d="m33.89 41c-.3999979 4.1933349-2.82308 7.9268975-6.49 10h-14.86c-3.67232492-2.0690497-6.10000212-5.8039377-6.5-10z" fill="#91562d"/><path id="Shape" d="m30.89 41c-.3999979 4.1933349-2.82308 7.9268975-6.49 10h3c3.66692-2.0731025 6.0900021-5.8066651 6.49-10z" fill="#6d4122"/><path id="Shape" d="m33.93 40c0 .34-.01.67-.04 1h-27.85c-.03-.33-.04-.66-.04-1 .01349221-3.4568272 1.46224466-6.752739 4-9.1v.1h20v-.03c2.4959908 2.3415176 3.9174613 5.6076444 3.93 9.03z" fill="#02a9f4"/><path id="Shape" d="m10 31v-.1c-.034.032-.063.068-.1.1z" fill="#0377bc"/><path id="Shape" d="m30 30.97v.03h-2.971c2.4777675 2.3392429 3.887501 5.5924741 3.9 9 0 .34-.01.67-.04 1h3c.03-.33.04-.66.04-1-.0122792-3.4222055-1.4333782-6.6883098-3.929-9.03z" fill="#0377bc"/><path id="Shape" d="m10 27v2h-3l-2.4 3.2c-.4287187.571625-1.12982941.8711095-1.83923049.7856407-.70940109-.0854688-1.31931765-.5429063-1.60000002-1.2-.28068236-.6570938-.18948821-1.4140158.23923051-1.9856407l3-4c.37904389-.5020093.97096623-.7979705 1.6-.8h3.5z" fill="#3f51b5"/><path id="Shape" d="m20 15h-3l1.724 3.447c.1692635.3387294.5153343.5527978.894.553h.764c.3786657-.0002022.7247365-.2142706.894-.553l1.724-3.447z" fill="#7f8e94"/><rect id="Rectangle-path" fill="#02a9f4" height="32" rx="3" width="6" x="47" y="9"/><path id="Shape" d="m50 9c-.5281059.00274535-1.0459153.14635115-1.5.416.925812.53141934 1.4976542 1.5165128 1.5 2.584v26c-.0023458 1.0674872-.574188 2.0525807-1.5 2.584.4540847.2696489.9718941.4132547 1.5.416 1.6568542 0 3-1.3431458 3-3v-26c0-1.6568542-1.3431458-3-3-3z" fill="#0377bc"/><circle id="Oval" cx="50" cy="48" fill="#f44335" r="3"/><path id="Shape" d="m50 45c-.5281059.0027453-1.0459153.1463511-1.5.416.9273539.5298262 1.4996803 1.5159639 1.4996803 2.584s-.5723264 2.0541738-1.4996803 2.584c.4540847.2696489.9718941.4132547 1.5.416 1.6568542 0 3-1.3431458 3-3s-1.3431458-3-3-3z" fill="#c81e1e"/><g fill="#000"><path id="Shape" d="m57 0h-54c-1.65685425 0-3 1.34314575-3 3v4c0 1.65685425 1.34314575 3 3 3h.532l4.1 4.92c.56925174.6851796 1.41420402 1.0810792 2.305 1.08h6.445l1.447 2.9c.3385618.6771006 1.0319813 1.1034625 1.789 1.1h.764c.7570187.0034625 1.4504382-.4228994 1.789-1.1l1.447-2.9h6.445c.890796.0010792 1.7357483-.3948204 2.305-1.08l4.1-4.92h2.532c.5522847 0 1 .4477153 1 1v38c0 .5522847-.4477153 1-1 1h-8.565c2.757368-2.439444 4.3823958-5.911134 4.4894225-9.5911491.1070268-3.6800151-1.313489-7.2402793-3.9244225-9.8358509v-3.449l.97-3.881c.0748476-.2987824.0078292-.6153864-.1816655-.8582132-.1894947-.2428267-.4803198-.3847787-.7883345-.3847868h-22c-.30801473.0000081-.59883979.1419601-.78833451.3847868-.18949472.2428268-.25651307.5594308-.18166549.8582132l.189.757h-2.219c-.94309168.0049703-1.83016879.4485088-2.4 1.2l-3 4c-.64307808.8574374-.77986931 1.9928203-.35884576 2.978461.42102355.9856406 1.33589839 1.6717968 2.40000002 1.8s2.11576768-.3210236 2.75884574-1.178461l2.1-2.8h1.5v.5c-2.64234694 2.5892822-4.08930173 6.1605375-3.99447365 9.8588327.09482808 3.6982951 1.72290245 7.1907035 4.49447365 9.6411673h-6.5c-1.65685425 0-3 1.3431458-3 3v4c0 1.6568542 1.34314575 3 3 3h54c1.6568542 0 3-1.3431458 3-3v-54c0-1.65685425-1.3431458-3-3-3zm-36.618 18h-.764l-1-2h2.764zm10.449-4.36c-.1899089.2280019-.4712674.3598887-.768.36h-20.126c-.29708249.0001857-.57886723-.1317292-.769-.36l-3.033-3.64h27.73zm-1.831 16.327-18-.067v-1.9h18zm.719-5.967-.5 2h-18.438l-.5-2zm-22.719 4c-.3147573 0-.61114562.1481942-.8.4l-2.4 3.2c-.33966756.4275915-.95419352.5153809-1.4.2-.4418278-.3313708-.53137085-.9581722-.2-1.4l3-3.995c.18954839-.2516167.48499992-.4011891.8-.405h2.719l.281 1.124v.876zm3.308 4h19.312c2.1138698 2.1266735 3.3033197 5.0014768 3.31 8h-25.93c.00787731-2.9978926 1.19633112-5.8720252 3.308-8zm-3.108 10h25.529c-.6310497 3.3471889-2.6709872 6.2613853-5.6 8h-14.314c-2.93553801-1.7345606-4.98156637-4.6496499-5.615-8zm50.8 15c0 .5522847-.4477153 1-1 1h-54c-.55228475 0-1-.4477153-1-1v-4c0-.5522847.44771525-1 1-1h36c1.6568542 0 3-1.3431458 3-3v-38c0-1.65685425-1.3431458-3-3-3h-36c-.55228475 0-1-.44771525-1-1v-4c0-.55228475.44771525-1 1-1h54c.5522847 0 1 .44771525 1 1z"/><path id="Shape" d="m50 8c-2.209139 0-4 1.790861-4 4v26c0 2.209139 1.790861 4 4 4s4-1.790861 4-4v-26c0-2.209139-1.790861-4-4-4zm2 30c0 1.1045695-.8954305 2-2 2s-2-.8954305-2-2h1c.5522847 0 1-.4477153 1-1s-.4477153-1-1-1h-1v-2h1c.5522847 0 1-.4477153 1-1s-.4477153-1-1-1h-1v-2h1c.5522847 0 1-.4477153 1-1s-.4477153-1-1-1h-1v-2h1c.5522847 0 1-.4477153 1-1s-.4477153-1-1-1h-1v-2h1c.5522847 0 1-.4477153 1-1s-.4477153-1-1-1h-1v-2h1c.5522847 0 1-.4477153 1-1s-.4477153-1-1-1h-1v-2h1c.5522847 0 1-.4477153 1-1s-.4477153-1-1-1h-1c0-1.1045695.8954305-2 2-2s2 .8954305 2 2z"/><path id="Shape" d="m50 44c-2.209139 0-4 1.790861-4 4s1.790861 4 4 4 4-1.790861 4-4-1.790861-4-4-4zm0 6c-1.1045695 0-2-.8954305-2-2s.8954305-2 2-2 2 .8954305 2 2-.8954305 2-2 2z"/></g></g></g></svg>