<svg id="Capa_1" enable-background="new 0 0 512 512" height="512" viewBox="0 0 512 512" width="512" xmlns="http://www.w3.org/2000/svg"><path d="m146.946 512h-21.915c-5.754 0-10.418-4.664-10.418-10.418v-28.727h42.751v28.727c0 5.754-4.664 10.418-10.418 10.418z" fill="#394949"/><path d="m386.968 512h-21.915c-5.754 0-10.418-4.664-10.418-10.418v-28.727h42.751v28.727c0 5.754-4.664 10.418-10.418 10.418z" fill="#394949"/><path d="m410.509 479.781h-309.018c-11.694 0-21.173-9.48-21.173-21.173v-437.435c-.001-11.693 9.479-21.173 21.173-21.173h309.019c11.694 0 21.173 9.48 21.173 21.173v437.434c0 11.694-9.48 21.174-21.174 21.174z" fill="#e8f3ff"/><path d="m410.509 0h-40.857c11.694 0 21.173 9.479 21.173 21.173v437.434c0 11.694-9.48 21.173-21.173 21.173h40.857c11.694 0 21.173-9.479 21.173-21.173v-437.434c.001-11.693-9.479-21.173-21.173-21.173z" fill="#d8eafb"/><path d="m410.509 0h-309.018c-11.694 0-21.174 9.48-21.174 21.173v156.231h351.365v-156.231c0-11.693-9.479-21.173-21.173-21.173z" fill="#d8eafb"/><path d="m390.825 21.173v156.231h40.857v-156.231c.001-11.693-9.479-21.173-21.173-21.173h-40.857c11.694 0 21.173 9.48 21.173 21.173z" fill="#c1e2ff"/><g fill="#688b96"><path d="m129.549 138.896c-7.819 0-14.157-6.338-14.157-14.157v-72.074c0-7.819 6.338-14.157 14.157-14.157 7.819 0 14.157 6.338 14.157 14.157v72.074c.001 7.819-6.338 14.157-14.157 14.157z"/><path d="m129.549 311.392c-7.819 0-14.157-6.338-14.157-14.157v-72.074c0-7.819 6.338-14.157 14.157-14.157 7.819 0 14.157 6.338 14.157 14.157v72.074c.001 7.818-6.338 14.157-14.157 14.157z"/></g></svg>